<?xml version="1.0" standalone="no"?>
<!DOCTYPE svg PUBLIC "-//W3C//DTD SVG 20010904//EN"
 "http://www.w3.org/TR/2001/REC-SVG-20010904/DTD/svg10.dtd">
<svg version="1.0" xmlns="http://www.w3.org/2000/svg"
 width="402.000000pt" height="402.000000pt" viewBox="0 0 402.000000 402.000000"
 preserveAspectRatio="xMidYMid meet">
<metadata>
Created by potrace 1.11, written by Peter Selinger 2001-2013
</metadata>
<g transform="translate(0.000000,402.000000) scale(0.100000,-0.100000)"
fill="#000000" stroke="none">
<path d="M1858 4015 c-2 -1 -30 -5 -63 -9 -347 -36 -713 -182 -988 -393 -94
-73 -105 -82 -197 -173 -104 -104 -143 -149 -207 -237 -187 -257 -314 -559
-363 -858 -5 -33 -12 -76 -15 -95 -11 -61 -13 -372 -4 -445 15 -122 41 -260
59 -320 75 -239 161 -429 275 -600 22 -33 45 -67 51 -75 124 -160 264 -300
414 -412 256 -192 579 -327 887 -373 23 -3 57 -8 75 -11 59 -10 361 -11 428
-3 36 5 85 11 110 14 114 15 337 79 460 132 80 35 248 121 260 133 3 3 17 11
31 19 62 31 242 175 335 267 159 156 289 336 389 535 47 92 120 275 129 321 2
13 9 35 15 51 6 15 8 27 6 27 -2 0 0 11 5 26 9 23 13 41 26 119 3 17 7 37 9
45 18 68 27 424 12 525 -3 28 -9 70 -13 95 -3 25 -14 83 -25 130 -11 47 -22
92 -24 100 -9 39 -48 156 -55 165 -4 6 -13 28 -20 50 -18 56 -104 225 -164
320 -218 345 -545 623 -916 778 -60 25 -272 98 -278 97 -2 -1 -103 20 -122 25
-3 1 -32 5 -65 9 -33 5 -69 11 -80 13 -21 5 -372 12 -377 8z m322 -769 c317
-48 596 -204 788 -441 31 -38 60 -71 65 -73 4 -2 7 -9 7 -17 0 -7 6 -18 14
-24 18 -15 109 -199 131 -266 31 -94 54 -193 59 -263 2 -30 6 -55 8 -57 9 -9
-2 -220 -16 -295 -38 -208 -106 -368 -224 -530 -67 -91 -197 -220 -272 -269
-30 -20 -57 -39 -60 -43 -12 -16 -212 -109 -285 -132 -168 -55 -363 -72 -543
-49 -103 13 -214 40 -277 67 -16 7 -46 19 -65 26 -70 27 -242 133 -289 178
-10 9 -35 33 -57 53 -61 56 -134 137 -134 147 0 6 -4 12 -9 14 -25 9 -171 275
-171 311 0 7 -4 17 -9 23 -11 11 -41 125 -47 179 -3 22 -9 52 -14 66 -9 28 -6
306 3 349 3 14 8 41 11 60 9 57 43 166 70 225 14 30 23 55 20 55 -3 0 4 13 15
29 12 16 21 32 21 36 0 11 92 150 101 153 5 2 9 8 9 13 0 9 52 70 106 123 182
183 420 303 681 345 105 17 275 20 363 7z"/>
</g>
</svg>
